REM DIRINDEX 1\5,1\2\6,1\2\7,1\3\8,1\3\9,1\4\10,1\4\11,1\4\12
REM DIRNAME folder01,folder02,folder03,folder04,folder05,folder06,folder07,folder08,folder09,folder10,folder11,folder12
TITLE ""
FILE "EJE_DB3000_5th_4B_47.mp3" MP3
  TRACK 01 AUDIO
    TITLE "0:"
    INDEX 01 00:00:00
  TRACK 02 AUDIO
    TITLE "10:cjc026_10011"
    INDEX 01 00:00:05
  TRACK 03 AUDIO
    TITLE "0:"
    INDEX 01 00:01:40
  TRACK 04 AUDIO
    TITLE "11:cjc026_10012"
    INDEX 01 00:01:66
  TRACK 05 AUDIO
    TITLE "0:"
    INDEX 01 00:03:51
  TRACK 06 AUDIO
    TITLE "12:cjc026_10013"
    INDEX 01 00:04:01
  TRACK 07 AUDIO
    TITLE "0:"
    INDEX 01 00:05:36
  TRACK 08 AUDIO
    TITLE "10:cjc026_10014"
    INDEX 01 00:05:61
  TRACK 09 AUDIO
    TITLE "0:"
    INDEX 01 00:07:00
  TRACK 10 AUDIO
    TITLE "11:cjc026_10015"
    INDEX 01 00:07:25
  TRACK 11 AUDIO
    TITLE "0:"
    INDEX 01 00:09:16
  TRACK 12 AUDIO
    TITLE "12:cjc026_10016"
    INDEX 01 00:09:42
  TRACK 13 AUDIO
    TITLE "0:"
    INDEX 01 00:10:55
  TRACK 14 AUDIO
    TITLE "10:cjc026_10017"
    INDEX 01 00:11:05
  TRACK 15 AUDIO
    TITLE "0:"
    INDEX 01 00:12:30
  TRACK 16 AUDIO
    TITLE "11:cjc026_10018"
    INDEX 01 00:12:56
  TRACK 17 AUDIO
    TITLE "0:"
    INDEX 01 00:14:33
  TRACK 18 AUDIO
    TITLE "12:cjc026_10019"
    INDEX 01 00:14:56
  TRACK 19 AUDIO
    TITLE "0:"
    INDEX 01 00:16:08
  TRACK 20 AUDIO
    TITLE "10:cjc026_10020"
    INDEX 01 00:16:32
  TRACK 21 AUDIO
    TITLE "0:"
    INDEX 01 00:17:45
  TRACK 22 AUDIO
    TITLE "11:cjc026_10021"
    INDEX 01 00:17:70
  TRACK 23 AUDIO
    TITLE "0:"
    INDEX 01 00:19:42
  TRACK 24 AUDIO
    TITLE "12:cjc026_10022"
    INDEX 01 00:19:65
  TRACK 25 AUDIO
    TITLE "0:"
    INDEX 01 00:21:04
  TRACK 26 AUDIO
    TITLE "10:cjc026_10023"
    INDEX 01 00:21:29
  TRACK 27 AUDIO
    TITLE "0:"
    INDEX 01 00:23:01
  TRACK 28 AUDIO
    TITLE "11:cjc026_10024"
    INDEX 01 00:23:26
  TRACK 29 AUDIO
    TITLE "0:"
    INDEX 01 00:25:23
  TRACK 30 AUDIO
    TITLE "12:cjc026_10025"
    INDEX 01 00:25:48
  TRACK 31 AUDIO
    TITLE "0:"
    INDEX 01 00:27:20
  TRACK 32 AUDIO
    TITLE "10:cjc026_10026"
    INDEX 01 00:27:45
  TRACK 33 AUDIO
    TITLE "0:"
    INDEX 01 00:28:62
  TRACK 34 AUDIO
    TITLE "11:cjc026_10027"
    INDEX 01 00:29:13
  TRACK 35 AUDIO
    TITLE "0:"
    INDEX 01 00:30:69
  TRACK 36 AUDIO
    TITLE "12:cjc026_10028"
    INDEX 01 00:31:20
  TRACK 37 AUDIO
    TITLE "0:"
    INDEX 01 00:32:37
  TRACK 38 AUDIO
    TITLE "10:cjc026_10029"
    INDEX 01 00:32:62
  TRACK 39 AUDIO
    TITLE "0:"
    INDEX 01 00:34:04
  TRACK 40 AUDIO
    TITLE "11:cjc026_10030"
    INDEX 01 00:34:32
  TRACK 41 AUDIO
    TITLE "0:"
    INDEX 01 00:36:33
  TRACK 42 AUDIO
    TITLE "12:cjc026_10031"
    INDEX 01 00:36:60
  TRACK 43 AUDIO
    TITLE "0:"
    INDEX 01 00:38:00
  TRACK 44 AUDIO
    TITLE "10:cjc026_10032"
    INDEX 01 00:38:26
  TRACK 45 AUDIO
    TITLE "0:"
    INDEX 01 00:39:68
  TRACK 46 AUDIO
    TITLE "11:cjc026_10033"
    INDEX 01 00:40:19
  TRACK 47 AUDIO
    TITLE "0:"
    INDEX 01 00:41:67
  TRACK 48 AUDIO
    TITLE "12:cjc026_10034"
    INDEX 01 00:42:18
  TRACK 49 AUDIO
    TITLE "0:"
    INDEX 01 00:43:60
  TRACK 50 AUDIO
    TITLE "10:cjc026_10035"
    INDEX 01 00:44:11
  TRACK 51 AUDIO
    TITLE "0:"
    INDEX 01 00:45:47
  TRACK 52 AUDIO
    TITLE "11:cjc026_10036"
    INDEX 01 00:45:73
  TRACK 53 AUDIO
    TITLE "0:"
    INDEX 01 00:47:64
  TRACK 54 AUDIO
    TITLE "12:cjc026_10037"
    INDEX 01 00:48:14
  TRACK 55 AUDIO
    TITLE "0:"
    INDEX 01 00:49:49
  TRACK 56 AUDIO
    TITLE "10:cjc026_10038"
    INDEX 01 00:50:01
  TRACK 57 AUDIO
    TITLE "0:"
    INDEX 01 00:51:32
  TRACK 58 AUDIO
    TITLE "11:cjc026_10039"
    INDEX 01 00:51:58
  TRACK 59 AUDIO
    TITLE "0:"
    INDEX 01 00:53:66
  TRACK 60 AUDIO
    TITLE "12:cjc026_10040"
    INDEX 01 00:54:17
  TRACK 61 AUDIO
    TITLE "0:"
    INDEX 01 00:55:50
